<svg viewBox="0 0 93.6936 32.0001" fill="none" xmlns="http://www.w3.org/2000/svg">
<g id="Group 1000007272">
<path id="Vector" d="M88.6486 13.9984L85.7533 18.3639L88.2244 21.8275L93.6936 14.0026H88.6486V13.9984Z" fill="currentColor" class="logo-dark"/>
<path id="Vector_2" d="M10.922 3.14233C9.70707 3.14233 8.80102 3.84246 8.29446 4.61672C7.82908 3.55417 6.84478 3.14233 5.74929 3.14233C4.65379 3.14233 3.70656 3.67361 3.08468 4.58377H3.05585V3.37708H0.490091V13.982C1.53616 12.487 3.16293 12.1987 3.16293 12.1987V7.10012C3.16293 5.36215 4.33256 5.05739 4.81029 5.05739C6.3341 5.05739 6.25997 6.24349 6.25997 7.26897V11.9557H8.64452V7.30192C8.64452 6.18583 8.89574 5.05327 10.2466 5.05327C11.5974 5.05327 11.7127 6.03345 11.7127 7.21543V12.417C11.7127 12.417 13.356 12.8576 14.1055 14.1467V6.30115C14.1055 4.0072 12.7753 3.1341 10.922 3.1341V3.14233Z" fill="currentColor" class="logo-dark"/>
<path id="Vector_3" d="M36.7567 0H34.2568V2.01802H36.7567V0Z" fill="currentColor" class="logo-dark"/>
<path id="Vector_4" d="M19.3853 3.14234C16.6507 3.14234 14.888 4.99562 14.888 7.82908C14.888 10.6625 16.6589 12.4993 19.3853 12.4993C22.1117 12.4993 23.9032 10.6461 23.9032 7.82908C23.9032 5.01209 22.1323 3.14234 19.3853 3.14234ZM19.3853 10.6708C17.7668 10.6708 17.2808 9.24169 17.2808 7.83732C17.2808 6.43294 17.7668 4.98327 19.3853 4.98327C21.0038 4.98327 21.5063 6.41235 21.5063 7.83732C21.5063 9.26228 21.0121 10.6708 19.3853 10.6708Z" fill="currentColor" class="logo-dark"/>
<path id="Vector_5" d="M29.7884 3.14234C28.7094 3.14234 27.6262 3.55418 27.0373 4.46435H27.0085V0.00412242H24.7845V12.1905C25.8224 12.1905 26.4484 12.4952 26.852 12.7465L26.889 11.1362H26.9179C27.4409 12.1163 28.5034 12.5158 29.7802 12.5158C31.0569 12.5158 33.3879 11.0867 33.3879 7.82908C33.3879 4.57143 31.5222 3.14646 29.7843 3.14646M28.9606 10.6708C27.548 10.6708 26.9179 9.31171 26.9179 7.83732C26.9179 6.36293 27.5356 4.98327 28.9606 4.98327C30.3856 4.98327 31.0033 6.34234 31.0033 7.83732C31.0033 9.3323 30.3732 10.6708 28.9606 10.6708Z" fill="currentColor" class="logo-dark"/>
<path id="Vector_6" d="M34.2568 12.417H36.7567V3.38531H34.2568L34.2651 12.417H34.2568Z" fill="currentColor" class="logo-dark"/>
<path id="Vector_7" d="M37.741 14.0026C37.741 14.0026 38.7006 12.9812 40.2656 12.9812V0H37.741V13.9984V14.0026Z" fill="currentColor" class="logo-dark"/>
<path id="Vector_8" d="M33.0913 31.5511H37.6298V22.8489C37.6298 19.4718 38.68 18.1004 41.1387 18.1004C43.5974 18.1004 44.0422 19.4512 44.0422 22.1776V31.5552H48.5765V21.3333C48.5765 17.2232 47.3616 14.4968 42.539 14.4968C39.2401 14.4968 37.9675 15.7653 37.4939 17.2561H37.4033V14.9416H33.0913V31.547V31.5511Z" fill="#F10600"/>
<path id="Vector_9" d="M56.175 9.97068H51.6406V14.9498H46.7644C46.7644 14.9498 48.7248 16.1648 48.8978 17.9974H51.653V27.7951C51.653 31.1063 54.0828 31.7653 56.8545 31.7447C58.8725 31.7282 59.1896 31.6952 59.4985 31.6582V28.0175C59.0249 28.1163 58.5719 28.1411 58.0983 28.1411C56.5621 28.1411 56.1832 27.7539 56.1832 26.2136V17.9974H59.3956V14.9498H56.1832V9.96656L56.175 9.97068Z" fill="#F10600"/>
<path id="Vector_10" d="M60.0792 31.5511H64.6136V24.0638C64.6136 21.1398 65.7667 18.7346 69.082 18.7387C69.708 18.7387 69.6998 18.8005 70.124 18.9035V14.9951C70.124 14.9951 70.0416 14.9622 69.7204 14.9622C67.5171 14.9622 65.2849 16.4036 64.4571 18.4957H64.3953V14.9416H60.0833V31.5387L60.0751 31.547V31.5552L60.0792 31.5511Z" fill="#F10600"/>
<path id="Vector_11" d="M71.03 31.5511H75.5685V16.4283L71.03 14.9457V31.5511Z" fill="#F10600"/>
<path id="Vector_12" d="M86.7953 22.6018L84.3242 19.1382L81.5237 14.9457H76.6022L81.6473 22.6924L75.6632 31.4934H80.7824L84.2542 26.2219L87.726 31.4934H92.9358L86.7912 22.6059L86.7953 22.6018Z" fill="#F10600"/>
<path id="Vector_13" d="M71.03 9.97068V13.4713L75.5685 14.9539V9.97068H71.03Z" fill="#F10600"/>
<path id="Vector_14" d="M31.9959 24.3521C32.313 19.2453 29.6031 14.4927 23.9814 14.4927C18.9652 14.4927 15.5511 18.2816 15.5511 23.2608C15.5511 28.2399 18.7758 31.9959 23.9814 31.9959C27.721 31.9959 30.4309 30.3279 31.7076 26.4113H27.7168C27.4285 27.4409 25.9624 28.5653 24.1421 28.5653C21.6175 28.5653 20.2172 27.2474 20.0854 24.3604H31.9959V24.3521ZM20.0813 21.4651C20.1431 20.1802 20.975 17.9315 23.8497 17.9315C26.053 17.9315 27.0414 19.1506 27.4574 21.4651H20.0813Z" fill="#F10600"/>
<path id="Vector_15" d="M0 26.156C0.193565 30.5544 3.92483 32 7.75906 32C11.5933 32 15.2916 30.5874 15.2916 26.2178C15.2916 23.1372 12.7053 22.1694 10.0571 21.5599C7.47078 20.9503 4.91737 20.7238 4.91737 19.0888C4.91737 17.738 6.42059 17.5444 7.44195 17.5444C9.06872 17.5444 10.4113 18.0263 10.5431 19.7931H14.851C14.5009 15.7117 11.1815 14.4968 7.56962 14.4968C3.95778 14.4968 0.387131 15.5882 0.387131 19.826C0.387131 22.7501 3.00643 23.6808 5.62162 24.2574C8.87927 24.9658 10.7614 25.4435 10.7614 26.8232C10.7614 28.4293 9.10166 28.9441 7.79201 28.9441C6.00051 28.9441 4.34079 28.1411 4.31197 26.1519H0.00411928L0 26.156Z" fill="#F10600"/>
<path id="Vector_16" d="M49.7709 8.18325C49.9397 5.45687 48.4942 2.92405 45.496 2.92405C42.819 2.92405 40.9987 4.94619 40.9987 7.60256C40.9987 10.2589 42.7202 12.2646 45.496 12.2646C47.4893 12.2646 48.9389 11.375 49.6185 9.28286H47.4893C47.3369 9.83061 46.5544 10.4319 45.5824 10.4319C44.2357 10.4319 43.4862 9.72765 43.4162 8.18737H49.7709V8.18325ZM43.4162 6.64297C43.4491 5.9552 43.8939 4.75674 45.426 4.75674C46.6038 4.75674 47.131 5.40745 47.3492 6.64297H43.4121H43.4162Z" fill="currentColor" class="logo-dark"/>
</g>
</svg>
