<svg width="36" height="36" viewBox="0 0 36 36" fill="none" xmlns="http://www.w3.org/2000/svg">
<path d="M12.4652 13.9088C12.9073 13.5088 13.4125 13.172 13.9748 12.9104V9.84914C13.9748 9.34996 14.041 8.97707 14.1643 8.72146C14.3988 8.27941 14.8559 8.05989 15.5385 8.05989C16.2212 8.05989 16.5159 8.28543 16.7203 8.72146C16.8316 8.96203 16.8918 9.35898 16.8918 9.90327V12.1827C17.1865 12.1556 17.4902 12.1496 17.8029 12.1496C18.3232 12.1496 18.8193 12.1767 19.3005 12.2278V9.90327C19.3005 9.49731 19.3666 9.14246 19.4899 8.85077C19.7395 8.30347 20.1996 8.02982 20.8582 8.02982C21.5167 8.02982 21.8175 8.24633 22.034 8.66733C22.1452 8.89287 22.2054 9.17855 22.2054 9.52738V12.9916C22.5001 13.1299 22.7918 13.2803 23.0594 13.4517C23.721 13.8727 24.2562 14.438 24.6562 15.1417L24.6712 9.59053C24.6712 8.99812 24.6442 8.54705 24.587 8.23731C24.5028 7.77121 24.3254 7.37727 24.0668 7.06152C23.751 6.66759 23.3962 6.39093 23.0023 6.24057C22.6143 6.0842 22.2144 6.00601 21.8144 6.00601C21.21 6.00601 20.6657 6.13231 20.1725 6.38792C19.7125 6.64353 19.3185 7.03746 19.0028 7.56973C18.8253 7.12467 18.5607 6.75479 18.2149 6.47212C17.7698 6.15637 17.2045 6 16.5068 6C15.8092 6 15.1687 6.17742 14.7086 6.53828C14.4469 6.74276 14.1613 7.07656 13.8756 7.55469V6.21651H11.5541V14.9342C11.8097 14.5734 12.1194 14.2305 12.4652 13.9118V13.9088Z" fill="currentColor"/>
<path d="M14.85 24.2353C14.9402 24.9961 15.1387 25.5374 15.4364 25.8502C15.9686 26.4215 16.9459 26.7042 18.3804 26.7042C19.8148 26.7042 20.0704 26.4877 20.3861 26.3283C20.6989 26.1689 21.1289 25.7028 21.1289 25.2066C21.1289 24.7104 20.9334 24.3646 20.5305 24.115C20.1305 23.8654 18.645 23.4384 16.0769 22.828C14.2245 22.3679 12.9254 21.7905 12.1676 21.0989C11.4128 20.4223 11.0309 19.4359 11.0309 18.1609C11.0309 16.8859 11.6233 15.3552 12.8051 14.2727C13.9869 13.1901 15.6559 12.6488 17.797 12.6488C19.9381 12.6488 21.4958 13.0548 22.7768 13.8727C24.0639 14.6876 24.7916 16.092 24.984 18.0917H20.7349C20.6748 17.5444 20.5184 17.1054 20.2749 16.7896C19.8027 16.2123 19.0058 15.9236 17.8782 15.9236C16.7505 15.9236 16.2904 16.0679 15.8934 16.3596C15.4995 16.6483 15.301 16.9911 15.301 17.376C15.301 17.7609 15.5115 18.218 15.9325 18.4406C16.3535 18.6721 17.8331 19.066 20.3801 19.6224C22.0731 20.0223 23.3482 20.6298 24.1992 21.4357C25.0322 22.2566 25.4532 23.2821 25.4532 24.503C25.4532 25.7239 24.8547 27.4439 23.6489 28.4634C22.446 29.4858 20.5876 30 18.0706 30C15.5536 30 13.611 29.4617 12.3871 28.3762C11.1602 27.2996 10.5468 25.9103 10.5468 24.2353H14.856H14.85Z" fill="currentColor"/>
</svg>
