<svg preserveAspectRatio="none" width="100%" height="100%" overflow="visible" style="display: block;" viewBox="0 0 22 22" fill="none" xmlns="http://www.w3.org/2000/svg">
<g id="Frame">
<path id="Vector" fill-rule="evenodd" clip-rule="evenodd" d="M7.33333 6.41667H14.6667C15.1729 6.41667 15.5833 6.82707 15.5833 7.33333V14.6667C15.5833 15.1729 15.1729 15.5833 14.6667 15.5833H7.33333C6.82707 15.5833 6.41667 15.1729 6.41667 14.6667V7.33333C6.41667 6.82707 6.82707 6.41667 7.33333 6.41667ZM5.5 7.33333C5.5 6.32081 6.32081 5.5 7.33333 5.5H14.6667C15.6792 5.5 16.5 6.32081 16.5 7.33333V14.6667C16.5 15.6792 15.6792 16.5 14.6667 16.5H7.33333C6.32081 16.5 5.5 15.6792 5.5 14.6667V7.33333ZM8.70833 8.25C8.45521 8.25 8.25 8.45521 8.25 8.70833V9.625C8.25 9.87809 8.45521 10.0833 8.70833 10.0833C8.96146 10.0833 9.16667 9.87809 9.16667 9.625V9.16667H10.5417V12.8333H10.0833C9.83024 12.8333 9.625 13.0386 9.625 13.2917C9.625 13.5448 9.83024 13.75 10.0833 13.75H11H11.9167C12.1698 13.75 12.375 13.5448 12.375 13.2917C12.375 13.0386 12.1698 12.8333 11.9167 12.8333H11.4583V9.16667H12.8333V9.625C12.8333 9.87809 13.0386 10.0833 13.2917 10.0833C13.5448 10.0833 13.75 9.87809 13.75 9.625V8.70833C13.75 8.45521 13.5448 8.25 13.2917 8.25H11H8.70833Z" fill="var(--fill-0, black)" fill-opacity="0.9"/>
</g>
</svg>
